<svg xmlns="http://www.w3.org/2000/svg" viewBox="0 0 640 290" width="640" height="290" font-family="Helvetica, Arial, sans-serif" font-size="11" role="img"><title>Demand-cleaned USD by seller category per week</title><rect width="640" height="290" fill="#ffffff"/><line x1="70" x2="628" y1="260.0" y2="260.0" stroke="#dde1dd"/><text x="64" y="264.0" text-anchor="end" fill="#121614">$0k</text><line x1="70" x2="628" y1="206.0" y2="206.0" stroke="#dde1dd"/><text x="64" y="210.0" text-anchor="end" fill="#121614">$25k</text><line x1="70" x2="628" y1="152.0" y2="152.0" stroke="#dde1dd"/><text x="64" y="156.0" text-anchor="end" fill="#121614">$50k</text><line x1="70" x2="628" y1="98.0" y2="98.0" stroke="#dde1dd"/><text x="64" y="102.0" text-anchor="end" fill="#121614">$75k</text><line x1="70" x2="628" y1="44.0" y2="44.0" stroke="#dde1dd"/><text x="64" y="48.0" text-anchor="end" fill="#121614">$100k</text><rect x="95.8" y="259.8" width="60.0" height="0.0" fill="#2a78d6"/><rect x="95.8" y="254.9" width="60.0" height="3.9" fill="#eb6834"/><rect x="95.8" y="254.7" width="60.0" height="0.0" fill="#1baf7a"/><rect x="95.8" y="197.5" width="60.0" height="56.2" fill="#eda100"/><rect x="95.8" y="194.5" width="60.0" height="2.0" fill="#e87ba4"/><rect x="95.8" y="170.7" width="60.0" height="22.7" fill="#008300"/><rect x="95.8" y="150.1" width="60.0" height="19.6" fill="#a9aea9"/><text x="125.8" y="276" text-anchor="middle" fill="#121614">24 Aug</text><rect x="207.4" y="260.0" width="60.0" height="0.0" fill="#2a78d6"/><rect x="207.4" y="249.4" width="60.0" height="9.6" fill="#eb6834"/><rect x="207.4" y="248.9" width="60.0" height="0.0" fill="#1baf7a"/><rect x="207.4" y="232.3" width="60.0" height="15.6" fill="#eda100"/><rect x="207.4" y="229.6" width="60.0" height="1.7" fill="#e87ba4"/><rect x="207.4" y="191.9" width="60.0" height="36.7" fill="#008300"/><rect x="207.4" y="169.4" width="60.0" height="21.5" fill="#a9aea9"/><text x="237.4" y="276" text-anchor="middle" fill="#121614">31 Aug</text><rect x="319.0" y="260.0" width="60.0" height="0.0" fill="#2a78d6"/><rect x="319.0" y="251.2" width="60.0" height="7.8" fill="#eb6834"/><rect x="319.0" y="250.9" width="60.0" height="0.0" fill="#1baf7a"/><rect x="319.0" y="250.2" width="60.0" height="0.0" fill="#eda100"/><rect x="319.0" y="244.0" width="60.0" height="5.2" fill="#e87ba4"/><rect x="319.0" y="219.2" width="60.0" height="23.8" fill="#008300"/><rect x="319.0" y="196.1" width="60.0" height="22.1" fill="#a9aea9"/><text x="349.0" y="276" text-anchor="middle" fill="#121614">7 Sep</text><rect x="430.6" y="260.0" width="60.0" height="0.0" fill="#2a78d6"/><rect x="430.6" y="256.8" width="60.0" height="2.2" fill="#eb6834"/><rect x="430.6" y="256.4" width="60.0" height="0.0" fill="#1baf7a"/><rect x="430.6" y="213.0" width="60.0" height="42.5" fill="#eda100"/><rect x="430.6" y="205.0" width="60.0" height="7.0" fill="#e87ba4"/><rect x="430.6" y="180.1" width="60.0" height="23.8" fill="#008300"/><rect x="430.6" y="155.4" width="60.0" height="23.7" fill="#a9aea9"/><text x="460.6" y="276" text-anchor="middle" fill="#121614">14 Sep</text><rect x="542.2" y="259.9" width="60.0" height="0.0" fill="#2a78d6"/><rect x="542.2" y="255.9" width="60.0" height="3.0" fill="#eb6834"/><rect x="542.2" y="255.7" width="60.0" height="0.0" fill="#1baf7a"/><rect x="542.2" y="214.0" width="60.0" height="40.7" fill="#eda100"/><rect x="542.2" y="207.2" width="60.0" height="5.8" fill="#e87ba4"/><rect x="542.2" y="125.8" width="60.0" height="80.4" fill="#008300"/><rect x="542.2" y="101.6" width="60.0" height="23.2" fill="#a9aea9"/><text x="572.2" y="276" text-anchor="middle" fill="#121614">21 Sep</text><rect x="70" y="5" width="10" height="10" rx="2" fill="#2a78d6"/><text x="84" y="14" fill="#121614">Content</text><rect x="135.4" y="5" width="10" height="10" rx="2" fill="#eb6834"/><text x="149.4" y="14" fill="#121614">Data</text><rect x="182.2" y="5" width="10" height="10" rx="2" fill="#1baf7a"/><text x="196.2" y="14" fill="#121614">Search</text><rect x="241.39999999999998" y="5" width="10" height="10" rx="2" fill="#eda100"/><text x="255.39999999999998" y="14" fill="#121614">Compute &amp; tools</text><rect x="70" y="21" width="10" height="10" rx="2" fill="#e87ba4"/><text x="84" y="30" fill="#121614">Other</text><rect x="123.0" y="21" width="10" height="10" rx="2" fill="#008300"/><text x="137.0" y="30" fill="#121614">Large ticket (unidentified)</text><rect x="312.4" y="21" width="10" height="10" rx="2" fill="#a9aea9"/><text x="326.4" y="30" fill="#121614">Unclassed</text></svg>