<svg xmlns="http://www.w3.org/2000/svg" viewBox="0 0 640 270" width="640" height="270" font-family="Helvetica, Arial, sans-serif" font-size="11" role="img"><title>Cumulative share of demand-cleaned USD held by the top N sellers, per week</title><rect width="640" height="270" fill="#ffffff"/><line x1="56" x2="530" y1="236.0" y2="236.0" stroke="#dde1dd"/><text x="50" y="240.0" text-anchor="end" fill="#121614">0%</text><line x1="56" x2="530" y1="181.0" y2="181.0" stroke="#dde1dd"/><text x="50" y="185.0" text-anchor="end" fill="#121614">25%</text><line x1="56" x2="530" y1="126.0" y2="126.0" stroke="#dde1dd"/><text x="50" y="130.0" text-anchor="end" fill="#121614">50%</text><line x1="56" x2="530" y1="71.0" y2="71.0" stroke="#dde1dd"/><text x="50" y="75.0" text-anchor="end" fill="#121614">75%</text><line x1="56" x2="530" y1="16.0" y2="16.0" stroke="#dde1dd"/><text x="50" y="20.0" text-anchor="end" fill="#121614">100%</text><text x="56.0" y="252" text-anchor="middle" fill="#121614">1</text><text x="121.4" y="252" text-anchor="middle" fill="#121614">5</text><text x="203.1" y="252" text-anchor="middle" fill="#121614">10</text><text x="284.8" y="252" text-anchor="middle" fill="#121614">15</text><text x="366.6" y="252" text-anchor="middle" fill="#121614">20</text><text x="448.3" y="252" text-anchor="middle" fill="#121614">25</text><text x="530.0" y="252" text-anchor="middle" fill="#121614">30</text><text x="293" y="268" text-anchor="middle" fill="#121614">Top N sellers by demand-cleaned USD</text><polyline points="56.0,123.3 72.3,89.5 88.7,59.2 105.0,51.9 121.4,47.5 137.7,43.5 154.1,39.6 170.4,36.5 186.8,34.0 203.1,32.5 219.4,31.0 235.8,29.6 252.1,28.4 268.5,27.4 284.8,26.8 301.2,26.3 317.5,25.9 333.9,25.5 350.2,25.1 366.6,24.7 382.9,24.3 399.2,24.0 415.6,23.7 431.9,23.5 448.3,23.2 464.6,23.0 481.0,22.8 497.3,22.5 513.7,22.3 530.0,22.1" fill="none" stroke="#c9cec9" stroke-width="1.4"/><polyline points="56.0,179.4 72.3,139.6 88.7,101.9 105.0,74.1 121.4,61.1 137.7,52.2 154.1,46.8 170.4,42.5 186.8,39.2 203.1,36.6 219.4,34.4 235.8,33.1 252.1,32.2 268.5,31.5 284.8,30.9 301.2,30.3 317.5,29.8 333.9,29.3 350.2,28.9 366.6,28.5 382.9,28.2 399.2,27.8 415.6,27.5 431.9,27.2 448.3,26.9 464.6,26.6 481.0,26.3 497.3,26.0 513.7,25.8 530.0,25.5" fill="none" stroke="#b4bab5" stroke-width="1.4"/><polyline points="56.0,174.7 72.3,128.8 88.7,109.5 105.0,94.4 121.4,79.6 137.7,66.5 154.1,58.8 170.4,51.2 186.8,47.8 203.1,45.2 219.4,43.5 235.8,41.8 252.1,40.1 268.5,38.8 284.8,37.7 301.2,36.6 317.5,35.7 333.9,34.8 350.2,33.9 366.6,33.2 382.9,32.5 399.2,31.8 415.6,31.2 431.9,30.6 448.3,30.1 464.6,29.6 481.0,29.2 497.3,28.8 513.7,28.5 530.0,28.1" fill="none" stroke="#9aa19c" stroke-width="1.4"/><polyline points="56.0,145.9 72.3,107.3 88.7,72.9 105.0,60.8 121.4,50.3 137.7,42.0 154.1,39.7 170.4,37.7 186.8,36.3 203.1,34.9 219.4,33.6 235.8,32.5 252.1,31.5 268.5,30.5 284.8,29.6 301.2,28.8 317.5,28.1 333.9,27.4 350.2,26.8 366.6,26.3 382.9,25.8 399.2,25.3 415.6,24.9 431.9,24.6 448.3,24.3 464.6,24.0 481.0,23.7 497.3,23.4 513.7,23.2 530.0,22.9" fill="none" stroke="#7c847e" stroke-width="1.4"/><polyline points="56.0,155.8 72.3,99.3 88.7,67.9 105.0,45.9 121.4,41.0 137.7,36.0 154.1,33.1 170.4,31.4 186.8,30.1 203.1,29.0 219.4,28.1 235.8,27.2 252.1,26.4 268.5,25.7 284.8,25.1 301.2,24.4 317.5,23.8 333.9,23.3 350.2,22.8 366.6,22.4 382.9,22.0 399.2,21.6 415.6,21.3 431.9,21.0 448.3,20.7 464.6,20.5 481.0,20.3 497.3,20.1 513.7,20.0 530.0,19.8" fill="none" stroke="#2a78d6" stroke-width="2.4"/><text x="536" y="23.8" fill="#2a78d6">21 Sep</text><text x="536" y="56" fill="#7c847e">grey: earlier</text><text x="536" y="70" fill="#7c847e">weeks</text></svg>